<?xml version="1.0" encoding="UTF-8" standalone="no"?>
<!-- Created with Inkscape (http://www.inkscape.org/) -->

<svg
   xmlns:dc="http://purl.org/dc/elements/1.1/"
   xmlns:cc="http://creativecommons.org/ns#"
   xmlns:rdf="http://www.w3.org/1999/02/22-rdf-syntax-ns#"
   xmlns:svg="http://www.w3.org/2000/svg"
   xmlns="http://www.w3.org/2000/svg"
   xmlns:sodipodi="http://sodipodi.sourceforge.net/DTD/sodipodi-0.dtd"
   xmlns:inkscape="http://www.inkscape.org/namespaces/inkscape"
   width="77.374863mm"
   height="89.086861mm"
   viewBox="0 0 77.374863 89.086861"
   version="1.1"
   id="svg7215"
   inkscape:version="0.92.3 (2405546, 2018-03-11)"
   sodipodi:docname="logo-vertical.svg">
  <defs
     id="defs7209" />
  <sodipodi:namedview
     id="base"
     pagecolor="#ffffff"
     bordercolor="#666666"
     borderopacity="1.0"
     inkscape:pageopacity="0.0"
     inkscape:pageshadow="2"
     inkscape:zoom="1.979899"
     inkscape:cx="91.745883"
     inkscape:cy="227.51206"
     inkscape:document-units="mm"
     inkscape:current-layer="layer1"
     showgrid="false"
     fit-margin-top="0"
     fit-margin-left="0"
     fit-margin-right="0"
     fit-margin-bottom="0"
     inkscape:window-width="3000"
     inkscape:window-height="1875"
     inkscape:window-x="-13"
     inkscape:window-y="-13"
     inkscape:window-maximized="1" />
  <metadata
     id="metadata7212">
    <rdf:RDF>
      <cc:Work
         rdf:about="">
        <dc:format>image/svg+xml</dc:format>
        <dc:type
           rdf:resource="http://purl.org/dc/dcmitype/StillImage" />
        <dc:title></dc:title>
      </cc:Work>
    </rdf:RDF>
  </metadata>
  <g
     inkscape:label="Layer 1"
     inkscape:groupmode="layer"
     id="layer1"
     transform="translate(183.83029,8.347)">
    <g
       transform="translate(-331.70357,-121.69517)"
       id="g7817">
      <path
         id="path1518"
         d="M 161.8117,152.27503 161.70241,146.98808 161.65304,132.45203 163.66453,132.53488 164.11847,132.59042 H 165.95629 L 169.48035,137.97433 169.14893,134.21934 168.88273,127.12805 170.048,128.17169 170.75582,128.11616 171.66371,128.18932 172.48522,128.23868 172.4773,135.8897 172.68797,143.52396 172.84134,148.76332 172.87483,151.88984 H 172.29132 C 172.29132,151.88984 172.04186,151.53285 171.75361,150.89732 171.21681,149.71265 170.00923,147.19522 168.85013,144.77739 168.2278,143.47989 167.67249,142.28288 167.12334,141.17665 167.0881,141.10526 167.02814,141.07529 166.99377,141.01182 166.72669,140.51027 166.38646,139.64645 166.34503,139.60326 166.17402,139.42168 165.98804,139.10788 165.86112,138.85755 165.66543,138.47147 165.28992,137.57768 164.94792,136.9254 164.65615,136.36921 164.37761,136.01398 164.37761,136.01398 L 163.74826,152.27503 Z M 161.8117,152.27503"
         style="fill:#d1e30c;stroke-width:0.22565208"
         inkscape:connector-curvature="0" />
      <path
         id="path1642"
         d="M 211.34764,179.60274 C 209.98754,179.81252 208.74557,178.27615 208.11268,176.90373 207.47982,175.53042 207.26915,172.27345 208.4406,170.59869 209.61294,168.92305 211.23041,170.59869 211.23041,170.59869 L 213.01182,171.59826 C 213.01182,171.59826 213.69141,172.80849 213.80864,172.97156 213.92589,173.13463 212.70683,179.39295 211.34764,179.60274 M 215.56627,171.59826 214.39394,170.20292 213.08145,168.89925 212.54289,168.66654 209.8236,168.13238 C 209.8236,168.13238 207.49568,168.08214 207.12812,168.62071 206.76056,169.15839 206.55341,169.73663 206.17878,170.90103 205.80418,172.06455 205.70809,172.49029 205.67194,173.57712 205.63582,174.66307 206.12061,178.90463 206.12061,178.90463 206.23607,179.30569 207.53535,180.12896 207.90204,180.34757 208.26872,180.56529 209.25241,180.90464 209.75396,181.0448 210.25462,181.18583 211.69846,181.5102 211.69846,181.5102 H 212.30841 C 212.30841,181.5102 212.55963,181.26075 213.01182,180.81209 213.46312,180.36343 213.79896,179.9183 214.11187,179.42821 214.60549,178.65429 215.09734,177.043 215.09734,177.043 215.09734,177.043 215.58125,174.69657 215.63679,173.90238 215.67733,173.32767 215.56627,171.59826 215.56627,171.59826"
         style="fill:#d1e30c;stroke-width:0.22565208"
         inkscape:connector-curvature="0" />
      <path
         id="path1644"
         d="M 178.40067,199.02292 177.50774,196.36446 V 196.05418 C 177.50774,195.36753 177.61969,194.68 177.73075,193.99335 177.7757,193.94928 177.79863,193.86024 177.79863,193.75007 177.79863,193.5059 177.73075,193.41688 177.73075,193.15156 V 192.81925 L 178.24465,186.03823 H 178.2896 C 178.84755,186.03823 180.13625,186.29561 180.65013,186.38376 180.65013,186.38376 179.32706,198.18113 181.88945,199.01146 181.88945,199.01146 183.76959,199.33319 184.76387,198.23667 185.89918,196.98588 185.47696,187.43445 185.40999,187.61162 185.49989,187.43445 185.16493,186.99108 185.34299,186.99108 H 185.38794 C 185.74492,187.05807 187.17377,187.27931 187.53076,187.27931 187.66475,187.34543 187.77669,187.41242 187.84366,187.50056 V 188.54244 C 187.84366,188.60855 187.91066,188.69758 187.91066,188.76368 V 189.14006 C 187.91066,189.14006 187.86571,189.36219 187.91066,189.36219 187.97766,191.99862 188.20067,194.61389 188.20067,197.25032 188.20067,197.60554 188.20067,198.11502 187.84366,198.3583 L 186.79387,199.9317 184.56203,201.15075 183.82512,201.372 C 183.75814,201.372 183.26717,201.41607 183.08823,201.41607 182.84319,201.41607 182.10628,201.372 182.03931,201.372 181.59328,201.30501 180.36542,201.19482 180.32047,201.15075 L 180.03046,200.92862 Z M 178.40067,199.02292"
         style="fill:#211e1e;stroke-width:0.22565208"
         inkscape:connector-curvature="0" />
      <path
         id="path1646"
         d="M 209.58913,200.70385 209.5671,200.72589 C 209.5671,200.79288 209.61205,200.79288 209.61205,200.72589 Z M 209.32117,199.63994 C 209.36612,199.66197 209.41019,199.66197 209.43311,199.63994 209.50011,199.6179 209.29915,199.6179 209.32117,199.63994 M 209.2101,200.28252 C 209.25417,200.30455 209.29915,200.30455 209.32117,200.28252 209.34409,200.21641 209.18719,200.21641 209.2101,200.28252 M 209.09816,200.76996 209.1202,200.74792 209.09816,200.70385 C 209.03118,200.70385 209.03118,200.76996 209.09816,200.76996 M 209.32117,199.92817 H 209.38816 C 209.32117,199.86207 209.25417,199.81711 209.14312,199.81711 209.07613,199.81711 209.0532,199.83915 209.03118,199.86207 209.0532,199.86207 209.25417,199.92817 209.32117,199.92817 M 209.03118,200.03923 C 209.00914,200.06127 208.98621,200.08331 208.98621,200.1503 209.03118,200.1503 209.07613,200.12738 209.09816,200.10535 Z M 208.98621,197.55707 V 197.62406 C 209.09816,197.62406 209.1202,197.51299 209.1202,197.446 209.03118,197.446 208.98621,197.49096 208.98621,197.55707 M 208.80817,197.15864 208.83019,197.13661 208.80817,197.11369 C 208.74117,197.11369 208.74117,197.15864 208.80817,197.15864 M 208.74117,197.40193 V 197.33582 H 208.62923 Z M 208.56223,199.1525 C 208.67417,199.1525 208.71913,199.13045 208.74117,199.06347 H 208.56223 Z M 208.54021,196.87041 208.56223,196.89245 C 208.62923,196.89245 208.62923,196.84837 208.56223,196.84837 Z M 208.45116,197.69016 H 208.56223 V 197.55707 Z M 208.45116,196.82546 208.47321,196.84837 208.51816,196.82546 C 208.51816,196.75935 208.45116,196.75935 208.45116,196.82546 M 208.33924,199.92817 H 208.62923 C 208.69622,199.92817 208.74117,199.90614 208.74117,199.86207 208.71913,199.77304 208.62923,199.81711 208.56223,199.81711 208.42826,199.81711 208.36126,199.86207 208.33924,199.92817 M 208.27224,195.54118 C 208.33924,195.54118 208.38419,195.51826 208.45116,195.49622 H 208.27224 Z M 208.2502,199.8841 208.27224,199.90614 C 208.33924,199.90614 208.33924,199.83915 208.27224,199.83915 Z M 208.22729,198.19965 C 208.38419,198.28867 208.58516,198.28867 208.74117,198.28867 V 198.13266 H 208.27224 Z M 207.93729,188.40582 H 208.0933 L 207.93729,188.3397 Z M 207.78127,192.77077 C 207.66933,192.77077 207.46836,192.90387 207.40136,193.01494 H 207.44631 C 207.55826,193.01494 207.73632,192.92591 207.80332,192.77077 Z M 206.70943,193.41335 C 206.79932,193.39131 207.02233,193.34724 207.02233,193.23618 206.86632,193.23618 206.73235,193.25822 206.70943,193.41335 M 206.19643,187.8743 C 206.2405,187.9404 206.28544,187.9404 206.30747,187.8743 206.33039,187.85226 206.12943,187.85226 206.19643,187.8743 M 206.06243,193.70159 H 206.19643 C 206.30747,193.70159 206.48641,193.67955 206.48641,193.52441 206.33039,193.52441 206.15145,193.5914 206.06243,193.70159 M 205.72748,188.69405 H 205.95049 C 205.92847,188.64909 205.88349,188.62706 205.81652,188.62706 H 205.72748 Z M 205.34757,190.99817 205.37049,191.02021 C 205.43749,191.02021 205.43749,190.97613 205.37049,190.97613 Z M 204.20963,193.63548 H 204.2766 V 193.5914 H 204.20963 Z M 203.71865,194.89772 203.74068,194.92063 C 203.80768,194.92063 203.80768,194.85365 203.74068,194.85365 Z M 203.69661,194.4993 H 203.74068 V 194.38824 H 203.69661 Z M 203.6737,193.85672 203.69661,193.87876 203.71865,193.85672 203.69661,193.81265 Z M 203.69661,193.52441 V 193.41335 L 203.62875,193.48034 Z M 203.29467,195.20799 203.3167,195.23003 203.33875,195.20799 C 203.33875,195.14188 203.29467,195.14188 203.29467,195.20799 M 203.00378,196.84837 203.02672,196.82546 203.00378,196.78139 C 202.93679,196.78139 202.93679,196.84837 203.00378,196.84837 M 202.46874,197.73423 C 202.46874,197.8453 202.53574,197.88937 202.64681,197.88937 V 197.73423 Z M 202.13381,200.28252 C 202.13381,200.12738 201.97689,200.12738 201.86584,200.12738 201.86584,200.28252 202.04388,200.28252 202.13381,200.28252 M 201.8438,201.01412 C 201.86584,201.08024 201.97689,201.08024 201.99982,201.01412 202.06681,200.99209 201.77592,200.99209 201.8438,201.01412 M 201.26292,200.96917 201.28495,200.94713 201.26292,200.90306 C 201.19593,200.90306 201.19593,200.96917 201.26292,200.96917"
         style="fill:#211e1e;stroke-width:0.22565208"
         inkscape:connector-curvature="0" />
      <path
         id="path1648"
         d="M 195.09804,135.1149 C 196.24921,131.83236 205.2947,127.51677 208.91569,128.65208 211.89326,129.58554 213.43051,131.36343 214.66542,133.25503 215.72316,134.87514 216.95279,146.16568 214.80997,146.92197 212.66627,147.67914 209.58649,149.9004 204.7905,149.31776 202.58245,149.05068 198.77545,148.89201 197.23731,146.91403 196.09319,145.44377 194.1258,137.88795 195.09804,135.1149"
         style="fill:#ffffff;stroke-width:0.22565208"
         inkscape:connector-curvature="0" />
      <path
         id="path1650"
         d="M 195.09804,135.1149 C 196.24922,131.83236 205.29469,127.51677 208.9157,128.65208 211.89325,129.58554 213.43051,131.36343 214.66542,133.25503 215.72316,134.87514 216.9528,146.16568 214.80998,146.92197 212.66629,147.67914 209.58649,149.9004 204.7905,149.31776 202.58246,149.05068 198.77546,148.89202 197.23732,146.91403 196.09319,145.44377 194.12579,137.88795 195.09804,135.1149 Z M 195.09804,135.1149"
         style="fill:none;stroke:#ffffff;stroke-width:0.45130417;stroke-miterlimit:10"
         inkscape:connector-curvature="0" />
      <path
         id="path1652"
         d="M 175.62673,148.42308 C 174.00486,149.80344 170.83426,150.84003 167.01228,150.84003 164.93646,150.84003 158.74865,149.22961 158.06201,147.39971 157.37623,145.56982 156.52916,139.0118 157.42646,136.12416 158.48951,132.705 162.09554,128.92974 165.59579,129.27615 169.74391,129.68779 176.73384,132.06948 177.73606,135.34319 178.70299,138.50497 178.33719,146.11544 175.62673,148.42308 M 182.20148,140.17797 C 182.20148,140.16827 182.20148,140.15857 182.20148,140.14888 182.19356,139.40052 182.12833,138.66539 182.0111,137.94877 L 183.46902,137.21452 183.3086,136.55255 183.14904,135.8897 H 181.51573 C 181.28565,135.17219 181.00183,134.47849 180.66775,133.81387 L 181.84186,132.68737 181.49192,132.10121 181.14286,131.51504 179.57916,131.99279 C 179.14814,131.3793 178.67127,130.80018 178.15209,130.26073 L 178.94099,128.83719 178.43239,128.37971 177.9238,127.92136 176.57077,128.8363 C 175.98019,128.37619 175.35349,127.96014 174.69415,127.59257 L 175.02468,126.00596 174.40238,125.71684 173.78008,125.42861 172.76201,126.69437 C 172.06388,126.42905 171.34021,126.21574 170.59626,126.05796 L 170.43937,124.4449 169.75977,124.35059 169.0793,124.25627 168.48078,125.7662 C 168.10793,125.7424 167.73154,125.73183 167.35252,125.73623 166.97261,125.73976 166.59625,125.75827 166.22425,125.79 L 165.59491,124.29329 164.9162,124.40259 164.23836,124.51101 164.11583,126.12672 C 163.3754,126.30036 162.65613,126.52866 161.96419,126.80808 L 160.91879,125.56435 160.30355,125.86669 159.68741,126.16814 160.05057,127.74859 C 159.40004,128.1285 158.78216,128.55865 158.20126,129.03022 L 156.82885,128.14525 156.33083,128.6133 155.83192,129.08223 156.65078,130.48815 C 156.14397,131.03906 155.67856,131.62787 155.26075,132.25106 L 153.68822,131.80592 153.35063,132.39914 153.01304,132.99324 154.21092,134.09417 C 153.89097,134.76584 153.62213,135.46484 153.40704,136.18763 L 151.77459,136.222 151.62827,136.8875 151.48283,137.553 152.95574,138.2564 C 152.85349,138.97566 152.80413,139.71168 152.81207,140.46003 152.81207,140.46973 152.81295,140.47942 152.81295,140.48912 L 151.25895,141.00036 151.31712,141.67908 151.37618,142.3578 152.99276,142.59932 C 153.11176,143.34591 153.28717,144.07399 153.51634,144.77739 L 152.18712,145.7179 152.70188,146.98014 154.31759,146.73863 C 154.65167,147.41206 155.03773,148.05464 155.46877,148.66372 L 154.47624,149.95329 155.3436,151.00927 156.82002,150.30499 C 157.33656,150.84708 157.89453,151.35039 158.48863,151.80875 L 157.92362,153.3319 158.49479,153.71004 159.06686,154.0873 160.26476,152.9846 C 160.91791,153.35129 161.60015,153.67038 162.30973,153.93569 L 162.22159,155.55316 162.88002,155.74708 163.53936,155.94012 164.35559,154.53773 C 165.08277,154.6955 165.83025,154.79864 166.5927,154.84535 L 166.99025,156.41875 167.67689,156.4117 168.36443,156.40464 168.72847,154.82243 C 169.48917,154.75985 170.234,154.64086 170.95767,154.46809 L 171.80387,155.85285 172.45877,155.64571 173.11283,155.43769 172.99118,153.82287 C 173.69458,153.54168 174.37066,153.20938 175.01501,152.82859 L 176.23669,153.90572 176.79994,153.51612 177.36407,153.12652 176.76557,151.61571 C 177.34996,151.14413 177.89735,150.62936 178.40243,150.07581 L 179.89297,150.74924 180.31607,150.21243 180.73826,149.67563 179.71843,148.40722 C 180.13625,147.78932 180.50909,147.13792 180.82907,146.45832 L 182.44918,146.66547 182.69334,146.02905 182.93749,145.39177 181.58888,144.48034 C 181.80219,143.77165 181.96261,143.04005 182.06576,142.29169 L 183.67704,142.0158 183.72111,141.3362 183.76606,140.6566 Z M 182.20148,140.17797"
         style="fill:#211e1e;stroke-width:0.22565208"
         inkscape:connector-curvature="0" />
      <path
         id="path1654"
         d="M 207.84915,136.48291 194.16547,136.29164 194.2915,135.68167 207.86061,136.04659 Z M 207.84915,136.48291"
         style="fill:#211e1e;stroke-width:0.22565208"
         inkscape:connector-curvature="0" />
      <path
         id="path1656"
         d="M 209.33087,139.05323 202.83631,129.06372 203.41454,128.70497 209.70107,138.82317 Z M 209.33087,139.05323"
         style="fill:#211e1e;stroke-width:0.22565208"
         inkscape:connector-curvature="0" />
      <path
         id="path1658"
         d="M 208.37977,142.32519 207.98136,142.15066 213.13611,129.74244 213.72932,130.10912 Z M 208.37977,142.32519"
         style="fill:#211e1e;stroke-width:0.22565208"
         inkscape:connector-curvature="0" />
      <path
         id="path1660"
         d="M 204.13117,142.54643 204.11971,142.11011 216.97747,141.5548 216.85583,142.22823 Z M 204.13117,142.54643"
         style="fill:#211e1e;stroke-width:0.22565208"
         inkscape:connector-curvature="0" />
      <path
         id="path1662"
         d="M 207.51243,150.00265 202.2484,138.91044 202.6424,138.72357 208.13649,149.777 Z M 207.51243,150.00265"
         style="fill:#211e1e;stroke-width:0.22565208"
         inkscape:connector-curvature="0" />
      <path
         id="path1664"
         d="M 209.486,138.93776 208.15059,142.23792 204.21843,142.09248 202.44936,139.02855 203.45333,136.31808 207.77951,136.46969 Z M 209.486,138.93776"
         style="fill:#211e1e;stroke-width:0.22565208"
         inkscape:connector-curvature="0" />
      <path
         id="path1666"
         d="M 194.00591,138.72621 H 193.78114 V 139.20749 H 194.00591 Z M 194.00591,138.72621"
         style="fill:#211e1e;stroke-width:0.22565208"
         inkscape:connector-curvature="0" />
      <path
         id="path1668"
         d="M 203.94079,128.16552 204.30659,127.8526 204.16025,127.6816 203.79445,127.99452 Z M 203.94079,128.16552"
         style="fill:#211e1e;stroke-width:0.22565208"
         inkscape:connector-curvature="0" />
      <path
         id="path1670"
         d="M 202.07561,138.88575 202.00688,138.94129 202.07561,139.05411 C 202.28188,139.05411 202.28188,138.88575 202.07561,138.88575"
         style="fill:#ffffff;stroke-width:0.22565208"
         inkscape:connector-curvature="0" />
      <path
         id="path1672"
         d="M 198.85391,148.89113 198.28362,148.66548 203.27969,136.00781 203.68516,136.16824 Z M 198.85391,148.89113"
         style="fill:#211e1e;stroke-width:0.22565208"
         inkscape:connector-curvature="0" />
      <path
         id="path1674"
         d="M 148.57668,123.19765 C 148.57668,123.19941 148.57668,123.20117 148.57668,123.20293 L 148.27611,123.28932 148.28316,123.41977 148.28933,123.54935 148.42066,124.19633 148.46562,124.31886 148.50969,124.44138 148.81996,124.40612 C 148.87902,124.53746 148.94866,124.66262 149.02622,124.78162 L 149.27303,125.10511 C 149.36735,125.21177 149.47048,125.31225 149.58066,125.40392 L 149.46254,125.6904 149.56832,125.76708 149.67497,125.84289 150.26731,126.14523 150.51588,126.22808 150.68159,125.96629 C 150.8191,126.00155 150.96101,126.02623 151.10645,126.04033 L 151.51457,126.05091 C 151.66001,126.04386 151.80368,126.02711 151.94295,125.99891 L 152.09456,126.26951 152.22061,126.23425 152.34754,126.199 152.95398,125.92839 153.06416,125.85876 153.17523,125.78736 153.07121,125.4956 C 153.18668,125.40921 153.29422,125.3149 153.39472,125.21265 L 153.65737,124.90326 C 153.74199,124.78867 153.81781,124.66703 153.88303,124.53922 L 154.19154,124.59034 154.24179,124.47046 154.29378,124.35059 154.45862,123.71065 154.47184,123.58108 154.48507,123.45239 154.18978,123.35014 C 154.18978,123.34838 154.18978,123.34573 154.18978,123.34397 154.1933,123.20117 154.18626,123.06102 154.16861,122.92263 L 154.08841,122.52598 C 154.04963,122.38759 154.00027,122.25361 153.9412,122.12404 L 154.17303,121.9169 154.11044,121.80319 154.04787,121.6886 153.64679,121.16149 153.55249,121.0707 153.45905,120.97991 153.19462,121.14474 C 153.08443,121.05307 152.96808,120.96933 152.84468,120.89441 L 152.4824,120.7093 C 152.35107,120.65377 152.21444,120.60793 152.07341,120.57268 L 152.0549,120.26417 151.92532,120.24037 151.79575,120.21833 151.13025,120.20071 151.00068,120.21657 150.87022,120.23244 150.83585,120.54006 C 150.69305,120.56827 150.55378,120.60705 150.4198,120.65553 L 150.04783,120.82125 C 149.9209,120.88912 149.80014,120.96669 149.68555,121.05307 L 149.42993,120.87413 149.33209,120.96052 149.23337,121.04602 148.80498,121.55109 148.66747,121.77322 148.88872,121.99182 C 148.82261,122.11787 148.76619,122.2492 148.72036,122.38583 L 148.61987,122.77807 C 148.59519,122.91382 148.58021,123.05397 148.57668,123.19765"
         style="fill:#211e1e;stroke-width:0.22565208"
         inkscape:connector-curvature="0" />
      <path
         id="path1676"
         d="M 216.12688,143.73992 C 215.88977,146.74215 215.48429,146.77653 214.29345,147.41294 213.1026,148.04935 211.0444,149.0498 208.85312,149.52843 206.80638,149.9762 203.75832,149.76994 201.12981,149.29925 198.45196,148.81974 197.72389,148.32436 196.72959,146.69896 195.51056,144.70335 194.67847,139.65526 194.67847,139.65526 194.67847,139.65526 194.21394,136.59045 194.6529,134.92362 195.09186,133.25591 198.7878,131.28057 201.90373,129.67809 205.01967,128.07561 208.1788,127.82704 210.36745,128.98968 212.55699,130.1532 214.99508,132.19112 215.53982,135.7469 216.09603,139.37673 216.36399,140.73857 216.12688,143.73992 M 219.99821,141.03121 C 219.98587,137.93819 218.96603,134.29603 218.36666,132.15498 217.76725,130.01481 214.60196,127.42422 213.30975,126.44404 212.01753,125.46386 210.13916,124.90767 208.45822,124.65557 206.77642,124.40259 203.88171,125.08043 201.64547,125.90018 199.99979,126.5031 196.85125,127.23823 194.13284,130.02186 191.23639,132.98707 191.50523,132.59306 191.27252,133.94433 190.10019,140.74474 192.07024,144.64077 193.22319,148.12515 194.37702,151.60954 196.93147,152.43281 199.68424,153.36275 202.4379,154.29268 207.78743,153.76028 208.97389,153.63688 210.1612,153.51436 211.39965,153.27813 213.36088,152.5906 215.32211,151.90218 217.0145,150.44514 218.52179,149.01189 220.02905,147.57953 220.01056,144.12335 219.99821,141.03121"
         style="fill:#211e1e;stroke-width:0.22565208"
         inkscape:connector-curvature="0" />
      <path
         id="path1678"
         d="M 218.56144,134.61776 224.42663,134.74998 224.95464,134.63274 V 136.12945 L 225.24814,139.58916 219.79461,139.73636 Z M 218.56144,134.61776"
         style="fill:#211e1e;stroke-width:0.22565208"
         inkscape:connector-curvature="0" />
      <path
         id="path1680"
         d="M 181.14638,135.13605 C 181.14638,135.13605 183.47872,133.36609 185.11998,133.08226 185.87363,132.95181 186.82735,132.74291 187.93535,132.99236 189.04332,133.24093 190.55767,133.90025 190.55767,133.90025 L 191.73441,134.29515 191.46732,139.74782 C 191.46732,139.74782 191.00016,139.15284 189.26986,138.37275 187.53958,137.59354 186.04021,137.91616 185.1191,138.15767 183.65412,138.54199 181.9203,139.70286 181.25041,140.07131 180.58049,140.43976 181.14638,135.13605 181.14638,135.13605"
         style="fill:#211e1e;stroke-width:0.22565208"
         inkscape:connector-curvature="0" />
      <path
         id="path1682"
         d="M 158.22595,129.24354 155.94916,126.82042 152.87729,123.72211 149.51719,124.20867 154.35374,129.02494 156.42337,130.7376 Z M 158.22595,129.24354"
         style="fill:#211e1e;stroke-width:0.22565208"
         inkscape:connector-curvature="0" />
      <path
         id="path1684"
         d="M 151.61064,121.53963 164.73461,116.59644 165.8091,119.19144 152.46037,123.77235 Z M 151.61064,121.53963"
         style="fill:#211e1e;stroke-width:0.22565208"
         inkscape:connector-curvature="0" />
      <path
         inkscape:connector-curvature="0"
         style="fill:#211e1e;stroke-width:0.85285825"
         d="M 634.03906,99.583984 C 631.69523,99.602106 629.48447,100.29578 628.15234,100.66016 626.62984,101.07995 621.87182,106.69426 621.78516,108.58984 621.70193,110.48547 621.84961,111.69727 621.84961,111.69727 621.84961,111.69727 621.22047,116.77029 623.44922,121.31445 625.67468,125.85858 630.77146,126.83572 633.5332,127.29883 636.29834,127.7619 638.88632,125.52613 643.42383,122.56445 647.96459,119.6061 651.58203,112.41016 651.58203,112.41016 651.58203,112.41016 648.71832,105.3399 647.91211,104.57031 647.10257,103.80073 637.75731,99.844313 635.04883,99.621094 634.71068,99.593191 634.3739,99.581396 634.03906,99.583984 Z M 635.35156,105.77539 C 635.90292,105.74478 636.41503,105.78379 636.88477,105.90039 638.76043,106.37015 641.15553,107.7455 642.35156,111.07031 643.54752,114.39513 643.37817,116.3315 642.07227,118.00391 641.48262,118.75683 638.31055,119.51367 638.31055,119.51367 L 630.91406,119.14258 C 630.91406,119.14258 627.22999,118.23356 626.85352,114.74219 626.47375,111.25081 626.83008,109.375 626.83008,109.375 626.83008,109.375 626.36265,109.10269 629.4043,107.66016 631.688,106.58075 633.69748,105.86722 635.35156,105.77539 Z"
         transform="matrix(0.26458333,0,0,0.26458333,0,87)"
         id="path1686" />
      <path
         id="path1690"
         d="M 154.39162,134.66624 147.97377,134.71296 148.29814,136.03954 C 148.30872,136.9492 147.87328,139.55125 147.87328,139.55125 L 154.88788,139.40317 Z M 154.39162,134.66624"
         style="fill:#211e1e;stroke-width:0.22565208"
         inkscape:connector-curvature="0" />
      <path
         id="path1692"
         d="M 159.1312,182.72925 H 158.59527 L 158.5283,182.66314 158.4613,177.36649 158.41635,166.26546 160.36876,166.30777 160.76014,166.37653 H 162.85888 L 162.92585,166.50963 164.51512,168.44794 166.43053,170.58635 166.49752,170.56431 166.02857,166.73881 167.63546,166.58984 168.48432,166.55987 H 169.46624 L 169.57555,169.2104 169.81443,175.2845 169.99424,179.53839 V 181.79756 L 169.93517,181.86455 H 169.39925 C 169.39925,181.86455 169.03699,181.50403 168.36795,180.24708 168.28509,180.09194 168.08765,179.73143 167.99247,179.58246 167.99247,179.58246 167.94221,179.54103 167.92547,179.51636 167.89639,179.4714 167.82499,179.3718 167.74741,179.25016 167.60725,179.03067 167.52618,178.80326 167.30141,178.49651 166.83864,177.86715 166.44111,177.12056 165.82409,176.121 165.44242,175.50133 164.54597,174.04782 164.06382,173.26773 164.05942,173.2598 164.0418,173.24481 164.03209,173.236 164.01799,173.22278 164.00564,173.20867 163.99242,173.19633 163.95805,173.1646 163.92985,173.13463 163.92985,173.13463 163.45034,172.32458 163.26081,172.00461 163.26081,172.00461 163.15329,171.94291 163.00519,171.75604 162.96552,171.69962 162.67466,171.28711 162.23391,170.53523 161.90338,169.98784 161.59399,169.4766 161.22906,169.12402 161.22906,169.12402 V 171.93762 L 161.09421,175.49605 160.82713,182.53005 160.76014,182.59615 Z M 159.1312,182.72925"
         style="fill:#d1e30c;stroke-width:0.22565208"
         inkscape:connector-curvature="0" />
      <path
         id="path1694"
         d="M 153.63887,202.43503 H 153.10294 L 153.03596,202.36892 152.96896,197.07315 152.92489,185.97124 154.87644,186.01355 155.26867,186.0823 H 157.36653 L 157.43353,186.2154 159.02367,188.1546 160.9382,190.29213 161.00517,190.27009 160.53712,186.44458 162.14401,186.29561 162.99197,186.26564 H 163.97392 L 164.0841,188.91618 164.32298,194.99027 164.5019,199.24416 V 201.50421 L 164.44285,201.5712 H 163.90692 C 163.90692,201.5712 163.54552,201.21068 162.8765,199.95373 162.79276,199.79772 162.5962,199.43808 162.501,199.28912 162.501,199.28912 162.45077,199.24681 162.43402,199.22213 162.40403,199.17806 162.33264,199.07757 162.25596,198.95681 162.11581,198.73645 162.03383,198.50903 161.80906,198.20317 161.34719,197.57381 160.94876,196.82634 160.33264,195.82677 159.95007,195.20799 159.05364,193.75359 158.57237,192.97351 158.56707,192.96557 158.55032,192.95147 158.53974,192.94177 158.52652,192.92943 158.51332,192.91445 158.50097,192.90299 158.46658,192.87126 158.43838,192.8404 158.43838,192.8404 157.95887,192.03123 157.76848,191.71038 157.76848,191.71038 157.66094,191.64868 157.51375,191.46269 157.4732,191.4054 157.18231,190.99288 156.74159,190.241 156.41103,189.6945 156.10166,189.18325 155.73762,188.82979 155.73762,188.82979 V 191.64428 L 155.60274,195.20182 155.33566,202.23582 155.26867,202.30193 Z M 153.63887,202.43503"
         style="fill:#211e1e;stroke-width:0.22565208"
         inkscape:connector-curvature="0" />
      <path
         id="path1696"
         d="M 172.44821,168.93891 C 172.44821,168.93891 175.10138,168.72384 175.50686,168.70885 175.91319,168.69563 180.34692,168.65861 180.34692,168.65861 L 180.3707,172.22938 C 180.3707,172.22938 180.07453,172.27521 179.92822,172.27521 179.78279,172.27521 179.69641,172.3043 179.68846,172.22938 179.67964,172.15269 179.65938,171.23774 179.65938,171.23774 L 174.75145,171.29504 174.658,172.43917 174.68093,172.90545 H 176.56194 L 177.00885,173.11612 177.17281,174.63222 V 175.44933 C 177.17281,175.44933 177.05732,175.53747 176.56461,175.54012 176.07099,175.54276 174.65624,175.541 174.42091,175.60711 174.18644,175.6741 174.09563,175.68291 174.09475,175.75255 174.09299,175.82306 173.71751,178.03992 173.71751,178.03992 L 173.52886,179.11706 176.56461,179.32861 177.15428,179.29247 179.11729,179.39648 179.39936,177.1523 H 180.01724 L 179.97493,178.03816 179.83214,179.55338 179.81012,180.13954 179.8295,180.67635 179.78279,180.71425 179.68846,180.69927 C 179.68846,180.69927 178.45972,180.67635 178.36892,180.67635 178.27814,180.67635 178.07099,180.68693 177.99607,180.69927 177.92116,180.71249 173.48215,180.76978 173.48215,180.76978 173.48215,180.76978 173.39047,180.75303 173.38783,180.69927 173.38519,180.6455 173.31203,180.73805 172.94887,180.75303 172.58659,180.76802 172.28338,180.76978 172.28338,180.76978 V 179.78961 L 172.31952,179.34712 172.3777,169.07906 C 172.3777,169.07906 172.36711,168.94861 172.44821,168.93891"
         style="fill:#d1e30c;stroke-width:0.22565208"
         inkscape:connector-curvature="0" />
      <path
         id="path1698"
         d="M 183.30596,166.7106 C 183.30596,166.7106 183.63385,166.71589 184.07106,166.78464 184.50914,166.85251 185.62505,167.05084 185.62505,167.05084 185.62505,167.05084 185.19489,172.14035 185.25131,174.05487 185.30772,175.9685 185.7899,179.33918 186.84233,179.45554 187.8948,179.57189 189.19054,179.35241 189.66653,178.69396 190.1425,178.03551 190.39548,175.66352 190.41046,174.32988 190.42632,172.99712 190.36727,168.86575 190.30118,168.25667 190.23506,167.6467 190.13458,167.7657 190.18657,167.6802 190.23858,167.5947 191.19672,167.79655 191.48494,167.83445 191.77408,167.87236 192.38403,167.92965 192.38403,167.92965 192.38403,167.92965 192.6661,168.0698 192.69166,168.14737 192.71635,168.22582 192.69166,169.17073 192.69166,169.17073 L 192.7569,169.38846 192.94024,174.17298 193.03985,177.27834 C 193.03985,177.27834 193.09538,178.22415 192.95169,178.46743 192.80889,178.71071 191.66037,180.35902 191.66037,180.35902 L 189.46818,181.55604 188.74451,181.77376 C 188.74451,181.77376 188.31965,181.81695 188.09488,181.81607 187.87011,181.8143 187.07505,181.78522 186.95692,181.76935 186.83793,181.75348 185.38178,181.61774 185.30156,181.55604 185.22134,181.49522 184.97278,181.33303 184.97278,181.33303 L 183.41524,179.46611 182.5382,176.85436 C 182.5382,176.85436 182.56113,175.93854 182.58669,175.71641 182.61224,175.49428 182.78678,173.62296 182.78678,173.62296 L 182.77092,173.19369 Z M 183.30596,166.7106"
         style="fill:#d1e30c;stroke-width:0.22565208"
         inkscape:connector-curvature="0" />
      <path
         id="path1700"
         d="M 196.63087,168.05041 C 196.63087,168.05041 199.39247,167.85473 199.66044,167.86795 199.9284,167.88205 201.21619,167.92348 202.24927,168.60925 203.28145,169.29414 203.92138,169.7049 203.97603,169.93055 204.10296,170.45149 202.78432,172.74503 201.5203,172.69919 201.21091,172.68773 200.76049,172.59959 200.46696,172.4709 199.94869,172.24436 199.71421,172.02576 199.71421,172.02576 L 202.50754,177.32506 C 202.50754,177.32506 203.17655,178.41806 203.20917,178.57761 203.24178,178.73715 203.71865,179.42468 203.60935,179.48903 203.49916,179.55426 202.07121,180.40045 202.07121,180.40045 L 201.56613,180.71954 198.60445,172.49381 C 198.60445,172.49381 198.36206,172.45856 198.3074,172.67716 198.2889,172.75032 198.14523,173.99758 198.14523,173.99758 L 197.8473,175.50839 196.99756,181.26692 H 195.94157 L 196.05707,179.85395 V 174.93191 L 196.24041,174.38541 Z M 196.63087,168.05041"
         style="fill:#d1e30c;stroke-width:0.22565208"
         inkscape:connector-curvature="0" />
      <path
         id="path1702"
         d="M 198.90326,170.32896 V 169.53213 L 198.97201,169.23508 H 199.4771 L 201.26732,169.78246 C 201.26732,169.78246 201.40396,169.83976 201.55467,169.87325 201.70541,169.90763 201.82794,169.99313 201.81824,170.0328 201.80853,170.07246 201.35195,171.12316 201.33609,171.19543 201.3211,171.26683 201.26732,171.41139 201.26732,171.44577 201.26821,171.48014 199.59168,170.64805 199.59168,170.64805 Z M 198.90326,170.32896"
         style="fill:#d1e30c;stroke-width:0.22565208"
         inkscape:connector-curvature="0" />
      <path
         id="path1704"
         d="M 170.62713,186.605 H 173.50684 L 174.3777,190.81482 175.31469,201.05203 173.90877,201.31558 173.56237,199.89997 172.54693,194.24985 C 172.54693,194.24985 171.48125,194.23663 171.11809,194.24985 170.75494,194.26219 169.69632,194.44994 169.67428,194.53809 169.65134,194.62623 167.59139,201.65054 167.59139,201.65054 L 166.27979,201.80214 168.9083,193.05283 Z M 170.62713,186.605"
         style="fill:#211e1e;stroke-width:0.22565208"
         inkscape:connector-curvature="0" />
      <path
         id="path1706"
         d="M 205.16953,186.43401 H 208.04923 L 208.92011,190.64383 209.85709,200.88103 208.45116,201.1437 208.10476,199.72896 207.08933,194.07885 C 207.08933,194.07885 206.02364,194.06563 205.6605,194.07885 205.29734,194.09119 204.23871,194.27806 204.21667,194.3662 204.19376,194.45523 202.13381,201.47953 202.13381,201.47953 L 200.8222,201.63026 203.45069,192.88183 Z M 205.16953,186.43401"
         style="fill:#211e1e;stroke-width:0.22565208"
         inkscape:connector-curvature="0" />
      <path
         id="path1708"
         d="M 190.9508,191.24586 V 189.38775 L 191.01778,186.4816 195.5273,186.26476 199.43302,186.17133 199.59168,189.00785 C 199.59168,189.00785 199.74417,191.0678 199.74594,191.24586 199.7477,191.42303 199.74594,192.42436 199.74594,192.42436 L 198.68203,192.03917 198.50573,190.13346 195.00196,189.5614 195.03369,194.18374 194.81244,198.95681 196.37526,199.48833 197.51322,199.86471 197.44623,201.34996 195.63837,201.23889 191.12972,201.06172 V 199.90966 L 193.73531,198.9621 C 193.73531,198.9621 193.66215,198.1115 193.65157,197.82679 193.57223,195.7395 193.62954,189.47325 193.62954,189.47325 H 192.5806 L 192.33469,191.31197 Z M 190.9508,191.24586"
         style="fill:#211e1e;stroke-width:0.22565208"
         inkscape:connector-curvature="0" />
      <path
         id="path1710"
         d="M 212.32692,195.58878 211.83595,200.79552 C 211.83595,200.79552 217.4993,201.20275 218.33139,200.9727 219.16436,200.74352 220.30056,198.80168 220.38518,197.80475 220.44248,197.13485 220.03612,196.34683 218.82236,195.47771 217.6086,194.6086 215.49663,192.44199 215.49663,192.44199 215.49663,192.44199 214.59579,191.19297 214.71567,190.82452 214.95276,190.09292 216.34547,189.5614 216.34547,189.5614 216.34547,189.5614 218.04492,189.47943 218.06342,189.87167 218.08193,190.26392 218.31464,191.83731 218.31464,191.83731 L 220.25825,191.81968 220.20712,188.1211 220.11722,188.07703 V 186.72488 C 220.11722,186.72488 219.16876,186.44899 217.99115,186.37495 217.20753,186.32559 215.9735,186.0779 214.6566,186.80862 213.33971,187.54022 213.2075,188.07703 213.2736,189.87167 213.33355,191.50765 213.39261,191.8188 214.60372,193.0405 215.81484,194.26131 217.45171,195.96516 217.38295,196.27543 217.18638,197.16129 215.85097,197.99779 214.60372,197.87086 213.35646,197.74481 213.26832,196.45084 213.23659,196.07622 213.20486,195.70161 213.23659,195.38869 213.23659,195.38869 Z M 212.32692,195.58878"
         style="fill:#211e1e;stroke-width:0.22565208"
         inkscape:connector-curvature="0" />
    </g>
  </g>
</svg>
